<?xml version="1.0" encoding="UTF-8"?>
<svg version="1.1" xmlns="http://www.w3.org/2000/svg" width="283" height="217">
<path d="M0 0 C0.77396622 0.32441071 1.54793243 0.64882141 2.34535217 0.98306274 C4.80702893 2.01656286 7.26483785 3.05892473 9.72265625 4.1015625 C11.37019714 4.7948547 13.01798144 5.48756875 14.66601562 6.1796875 C21.38296367 9.00411405 28.08966146 11.85165458 34.78515625 14.7265625 C34.78515625 15.3865625 34.78515625 16.0465625 34.78515625 16.7265625 C32.53673534 17.70949517 30.28656078 18.68800716 28.03515625 19.6640625 C27.08382812 20.08075195 27.08382812 20.08075195 26.11328125 20.50585938 C23.04148467 21.83377144 20.07515599 23.07022417 16.78515625 23.7265625 C18.128641 28.20708415 19.91656749 32.00945069 22.28515625 36.0390625 C22.89359375 37.08707031 23.50203125 38.13507812 24.12890625 39.21484375 C25.54181384 41.81343702 25.54181384 41.81343702 27.78515625 42.7265625 C29.49496435 42.83051317 31.20870614 42.87251331 32.92163086 42.88427734 C34.52856056 42.89967056 34.52856056 42.89967056 36.16795349 42.91537476 C37.32940384 42.92267609 38.49085419 42.92997742 39.6875 42.9375 C42.12826199 42.96556199 44.56901712 42.9942264 47.00976562 43.0234375 C50.872313 43.06477185 54.73473129 43.10164467 58.59741211 43.12792969 C62.31521314 43.15544611 66.03242419 43.20131291 69.75 43.25 C70.90942612 43.25325287 72.06885223 43.25650574 73.26341248 43.25985718 C74.3378511 43.27642365 75.41228973 43.29299011 76.51928711 43.31005859 C77.46589706 43.31814545 78.41250702 43.3262323 79.38780212 43.33456421 C81.78515625 43.7265625 81.78515625 43.7265625 83.55177307 44.87759399 C86.84297706 49.81144798 85.93328169 56.78910031 85.93041992 62.50805664 C85.93377853 63.47625839 85.93713715 64.44446014 85.94059753 65.44200134 C85.95007132 68.6319203 85.95204858 71.82178661 85.953125 75.01171875 C85.95633908 77.23319012 85.95970327 79.45466128 85.96321106 81.6761322 C85.96919267 86.32714326 85.97105185 90.97813576 85.97045898 95.62915039 C85.97035719 101.59002779 85.98403144 107.55078654 86.00123119 113.51163578 C86.01234363 118.09696501 86.01437846 122.68226542 86.01384926 127.26760674 C86.01502967 129.46564583 86.01945484 131.66368567 86.02718163 133.8617115 C86.03697 136.93271372 86.03410839 140.00345657 86.02807617 143.07446289 C86.03369568 143.98213409 86.03931519 144.8898053 86.04510498 145.82498169 C86.02333588 150.18253981 85.99241118 153.82993044 83.78515625 157.7265625 C80.31521764 159.4615318 76.31203276 159.12283559 72.48632812 159.28076172 C71.47888298 159.32287214 70.47143784 159.36498257 69.43346405 159.40836906 C54.35365414 159.96532765 39.26072257 159.87241744 24.17303276 159.860888 C19.74413877 159.85831727 15.31524663 159.86071418 10.88635254 159.86227417 C3.47354757 159.86407928 -3.93924735 159.86173034 -11.35205078 159.85693359 C-19.90647219 159.85146188 -28.46086987 159.85328125 -37.01529074 159.85876 C-44.40264129 159.86330032 -51.78998472 159.86393813 -59.17733622 159.86132133 C-63.57195838 159.85976775 -67.96656937 159.85954018 -72.3611908 159.86285782 C-76.47854032 159.86575103 -80.59585912 159.86373424 -84.71320534 159.85796356 C-86.21963767 159.85664513 -87.7260726 159.85701446 -89.23250389 159.85922623 C-91.29358696 159.86197307 -93.3545725 159.85851406 -95.41564941 159.85354614 C-96.5665934 159.85316912 -97.71753738 159.85279209 -98.90335846 159.85240364 C-108.05386039 159.50467158 -108.05386039 159.50467158 -111.12853432 157.44397736 C-112.52160676 155.24158158 -112.5921032 153.84954198 -112.59579468 151.2479248 C-112.60425415 150.3309935 -112.61271362 149.41406219 -112.62142944 148.46934509 C-112.61535675 147.46561356 -112.60928406 146.46188202 -112.60302734 145.42773438 C-112.6082843 144.36897598 -112.61354126 143.31021759 -112.61895752 142.21937561 C-112.63218734 138.71120557 -112.62340862 135.20348735 -112.61328125 131.6953125 C-112.61530112 129.26297925 -112.61821183 126.8306466 -112.62197876 124.39831543 C-112.62640617 119.29722333 -112.6199575 114.19628867 -112.60595703 109.09521484 C-112.58886512 102.54769102 -112.59870405 96.00053609 -112.61667442 89.45302582 C-112.62750089 84.4293946 -112.62407111 79.40585123 -112.61629105 74.38221741 C-112.6142859 71.96761532 -112.61675928 69.55300533 -112.62372971 67.13841248 C-112.63132531 63.76718942 -112.61976595 60.39656867 -112.60302734 57.02539062 C-112.60910004 56.02165909 -112.61517273 55.01792755 -112.62142944 53.98377991 C-112.61296997 53.0668486 -112.6045105 52.1499173 -112.59579468 51.2052002 C-112.5946636 50.40805855 -112.59353252 49.6109169 -112.59236717 48.78961945 C-112.11561276 46.18429369 -111.31873047 45.29783652 -109.21484375 43.7265625 C-106.20333862 43.35906982 -106.20333862 43.35906982 -102.46435547 43.37011719 C-101.78277374 43.36807281 -101.10119202 43.36602844 -100.3989563 43.36392212 C-98.14720796 43.36091506 -95.89619247 43.37938509 -93.64453125 43.3984375 C-92.08179913 43.40149484 -90.51906428 43.40337115 -88.95632935 43.40411377 C-85.68285683 43.40871602 -82.40963044 43.42314099 -79.13623047 43.4453125 C-74.93149746 43.47364161 -70.72695798 43.48452868 -66.5221386 43.4889946 C-63.29662118 43.49314218 -60.07114323 43.50295332 -56.8456459 43.51486969 C-55.29463137 43.52058256 -53.74361302 43.52533789 -52.19259262 43.52913666 C-50.03050746 43.53597825 -47.8685786 43.54959918 -45.70654297 43.56542969 C-44.47426971 43.57225769 -43.24199646 43.57908569 -41.97238159 43.58612061 C-39.21484375 43.7265625 -39.21484375 43.7265625 -38.21484375 44.7265625 C-38.14278864 46.41265216 -38.13098307 48.10156909 -38.15234375 49.7890625 C-38.16136719 50.70816406 -38.17039062 51.62726563 -38.1796875 52.57421875 C-38.19128906 53.28449219 -38.20289062 53.99476562 -38.21484375 54.7265625 C-36.23484375 54.7265625 -34.25484375 54.7265625 -32.21484375 54.7265625 C-32.21484375 51.0965625 -32.21484375 47.4665625 -32.21484375 43.7265625 C-33.86484375 43.0665625 -35.51484375 42.4065625 -37.21484375 41.7265625 C-39.33409979 39.60730646 -38.63315392 35.1069532 -38.77734375 32.1640625 C-38.84211914 30.95459961 -38.84211914 30.95459961 -38.90820312 29.72070312 C-39.01459637 27.72287445 -39.11525263 25.7247418 -39.21484375 23.7265625 C-39.77993652 23.46963623 -40.3450293 23.21270996 -40.92724609 22.94799805 C-43.48557853 21.77882802 -46.03768182 20.59663753 -48.58984375 19.4140625 C-49.47929688 19.00994141 -50.36875 18.60582031 -51.28515625 18.18945312 C-52.1359375 17.79306641 -52.98671875 17.39667969 -53.86328125 16.98828125 C-55.04156494 16.44627075 -55.04156494 16.44627075 -56.24365234 15.89331055 C-58.21484375 14.7265625 -58.21484375 14.7265625 -60.21484375 11.7265625 C-54.6282944 9.76879156 -49.04153727 7.81161511 -43.45458984 5.85498047 C-41.55544455 5.18977788 -39.65635535 4.52441513 -37.75732422 3.85888672 C-35.02195867 2.90029083 -32.28638949 1.94227806 -29.55078125 0.984375 C-28.70679779 0.68846466 -27.86281433 0.39255432 -26.99325562 0.087677 C-25.4238284 -0.46163733 -23.85297631 -1.00690461 -22.28045654 -1.54730225 C-20.50753155 -2.17054748 -18.75444494 -2.84972941 -17.00634766 -3.53955078 C-10.89060467 -5.14738036 -5.55624924 -2.37168918 0 0 Z M10.78515625 25.7265625 C10.6871875 26.84675781 10.58921875 27.96695313 10.48828125 29.12109375 C10.33819171 30.59384734 10.18709748 32.06649879 10.03515625 33.5390625 C9.97328125 34.27705078 9.91140625 35.01503906 9.84765625 35.77539062 C9.24196353 41.35281109 9.24196353 41.35281109 6.72265625 43.4140625 C6.08328125 43.8471875 5.44390625 44.2803125 4.78515625 44.7265625 C4.30253958 47.23536866 4.30253958 47.23536866 4.53515625 49.9140625 C4.57125 50.81511719 4.60734375 51.71617188 4.64453125 52.64453125 C4.71414062 53.67513672 4.71414062 53.67513672 4.78515625 54.7265625 C6.76515625 54.7265625 8.74515625 54.7265625 10.78515625 54.7265625 C11.11515625 51.0965625 11.44515625 47.4665625 11.78515625 43.7265625 C15.41515625 43.7265625 19.04515625 43.7265625 22.78515625 43.7265625 C21.17636478 39.70458382 19.48828633 36.214609 17.34765625 32.4765625 C16.75082031 31.41953125 16.15398437 30.3625 15.5390625 29.2734375 C13.97517719 26.45546978 13.97517719 26.45546978 10.78515625 25.7265625 Z " fill="#758B95" transform="translate(151.21484375,18.2734375)"/>
<path d="M0 0 C0.33 0 0.66 0 1 0 C1 3.3 1 6.6 1 10 C1.88445801 9.83773926 2.76891602 9.67547852 3.68017578 9.50830078 C9.46239347 8.68826272 15.28959616 8.85741855 21.1171875 8.8671875 C22.37008575 8.86623077 23.62298401 8.86527405 24.91384888 8.86428833 C28.22438318 8.86343658 31.53486995 8.8674431 34.84539795 8.87304688 C37.55858527 8.87565783 40.27173964 8.87083386 42.98492241 8.86605644 C46.21651367 8.86158853 49.44809522 8.86470846 52.6796875 8.8671875 C54.50921463 8.86415115 54.50921463 8.86415115 56.3757019 8.86105347 C57.49421539 8.86420563 58.61272888 8.86735779 59.76513672 8.87060547 C60.75440155 8.87140106 61.74366638 8.87219666 62.76290894 8.87301636 C65 9 65 9 66 10 C66.10053508 12.8250333 66.13615716 15.62565285 66.12939453 18.45117188 C66.13202301 19.78034386 66.13202301 19.78034386 66.13470459 21.1363678 C66.1391244 24.08051482 66.13618467 27.02460231 66.1328125 29.96875 C66.1334855 32.00516776 66.1344555 34.04158544 66.13571167 36.07800293 C66.13718882 40.35197716 66.13503355 44.62593053 66.13037109 48.89990234 C66.1246738 54.39158539 66.12795271 59.88321957 66.13394356 65.37490082 C66.13754872 69.58177054 66.13641079 73.78862859 66.13381577 77.99549866 C66.13314637 80.02100124 66.13397535 82.04650486 66.13629532 84.07200623 C66.1388211 86.8976423 66.1349823 89.72319807 66.12939453 92.54882812 C66.13141876 93.39457901 66.13344299 94.2403299 66.13552856 95.11170959 C66.11426241 100.88573759 66.11426241 100.88573759 65 102 C63.37325222 102.09340434 61.74245949 102.11745171 60.11303711 102.11352539 C59.07203354 102.11344986 58.03102997 102.11337433 56.95848083 102.11329651 C55.8262056 102.10813522 54.69393036 102.10297394 53.52734375 102.09765625 C52.37456436 102.0962413 51.22178497 102.09482635 50.03407288 102.09336853 C46.33518936 102.08775005 42.63636536 102.07519442 38.9375 102.0625 C36.43684983 102.05748738 33.93619871 102.05292406 31.43554688 102.04882812 C25.29034412 102.03777462 19.14517631 102.02101852 13 102 C9.40610799 88.99563318 5.97038865 75.9633209 2.7109375 62.87109375 C2.27822792 61.13320084 2.27822792 61.13320084 1.83677673 59.36019897 C0.36640445 53.44707909 -1.09748012 47.5324078 -2.55541992 41.61621094 C-3.10591962 39.39387094 -3.65645522 37.17153984 -4.20703125 34.94921875 C-4.45889191 33.91993759 -4.71075256 32.89065643 -4.97024536 31.83018494 C-5.32685745 30.39383446 -5.32685745 30.39383446 -5.69067383 28.9284668 C-5.89606277 28.09421677 -6.10145172 27.25996674 -6.31306458 26.4004364 C-7.04295813 23.84988654 -7.97560945 21.44556157 -9 19 C-9.7425 19.61875 -10.485 20.2375 -11.25 20.875 C-15.81387177 24.40162818 -18.61177597 25.27693976 -24.4375 25.25 C-25.54996094 25.25515625 -26.66242188 25.2603125 -27.80859375 25.265625 C-32.41084863 24.88257319 -35.9477329 23.10117553 -40 21 C-40.268125 22.03511719 -40.53625 23.07023437 -40.8125 24.13671875 C-43.78384872 35.54420441 -46.89449081 46.91023667 -50.0456543 58.26928711 C-52.22401498 66.13734182 -54.3567499 74.0144475 -56.36523438 81.92773438 C-57.49205868 86.30613289 -58.82332391 90.56722459 -60.32299805 94.83300781 C-61.05464324 97.17490567 -61.51882395 99.59411973 -62 102 C-79.16 102 -96.32 102 -114 102 C-115.62349635 98.75300729 -115.13816373 95.18619307 -115.12939453 91.61889648 C-115.13114685 90.75214294 -115.13289917 89.8853894 -115.13470459 88.99237061 C-115.13911697 86.11859147 -115.13618751 83.24487354 -115.1328125 80.37109375 C-115.13348565 78.38094572 -115.13445577 76.39079777 -115.13571167 74.40065002 C-115.13718776 70.22680886 -115.13503669 66.05298907 -115.13037109 61.87915039 C-115.12467017 56.51641103 -115.12795568 51.15372168 -115.13394356 45.79098415 C-115.13754841 41.68105184 -115.136411 37.57113147 -115.13381577 33.46119881 C-115.13314648 31.4831447 -115.13397499 29.50508953 -115.13629532 27.52703667 C-115.13882099 24.76856463 -115.13498263 22.01017486 -115.12939453 19.25170898 C-115.13141876 18.42623062 -115.13344299 17.60075226 -115.13552856 16.7502594 C-115.11426323 11.11426323 -115.11426323 11.11426323 -114 10 C-111.79205589 9.87593185 -109.58015514 9.82197722 -107.36889648 9.79467773 C-106.67624695 9.78477814 -105.98359741 9.77487854 -105.2699585 9.76467896 C-102.97037221 9.7329797 -100.67076523 9.70827349 -98.37109375 9.68359375 C-96.78067982 9.66303148 -95.19027145 9.64203521 -93.59986877 9.62062073 C-89.40610237 9.56532491 -85.21228605 9.5159489 -81.01843262 9.46777344 C-76.74206072 9.41761309 -72.46576166 9.36189856 -68.18945312 9.30664062 C-59.79303027 9.19896726 -51.39654662 9.09754284 -43 9 C-43 9.99 -43 10.98 -43 12 C-42.4225 12.2475 -41.845 12.495 -41.25 12.75 C-38.67060021 14.18299988 -36.93878408 15.78424676 -35 18 C-35 18.66 -35 19.32 -35 20 C-34.0409375 20.2165625 -34.0409375 20.2165625 -33.0625 20.4375 C-31 21 -31 21 -30 22 C-28.31816052 22.23287008 -26.6287584 22.41264166 -24.9375 22.5625 C-24.01839844 22.64628906 -23.09929687 22.73007813 -22.15234375 22.81640625 C-21.08693359 22.90728516 -21.08693359 22.90728516 -20 23 C-20 22.34 -20 21.68 -20 21 C-18.948125 20.62875 -17.89625 20.2575 -16.8125 19.875 C-12.5898948 18.07632436 -10.63640548 15.7219842 -8 12 C-7.67 11.01 -7.34 10.02 -7 9 C-4.69 9 -2.38 9 0 9 C0 6.03 0 3.06 0 0 Z " fill="#A1C0BC" transform="translate(162,64)"/>
<path d="M0 0 C72.27 0 144.54 0 219 0 C217.87393718 5.63031412 217.87393718 5.63031412 215.85546875 8.62890625 C215.21061523 9.59280273 215.21061523 9.59280273 214.55273438 10.57617188 C213.87694336 11.5594043 213.87694336 11.5594043 213.1875 12.5625 C212.74857422 13.22185547 212.30964844 13.88121094 211.85742188 14.56054688 C207.24108627 21.38558985 207.24108627 21.38558985 204 24 C201.35432344 24.4037087 199.1191828 24.56210573 196.47357178 24.5415802 C195.71217431 24.55134799 194.95077685 24.56111578 194.16630673 24.57117957 C191.61292064 24.59885957 189.06036016 24.59790716 186.50683594 24.59692383 C184.67687248 24.61052863 182.84692049 24.62576124 181.01698303 24.64250183 C176.04366145 24.68214697 171.07060053 24.69560435 166.0971365 24.70195985 C162.98938278 24.70702309 159.88169639 24.71753119 156.77396393 24.72995567 C145.9301639 24.77296707 135.08655845 24.79417289 124.24267578 24.79614258 C114.13806617 24.79857589 104.03448402 24.84955133 93.9301641 24.92303449 C85.25313048 24.98390735 76.57643508 25.01005823 67.89918923 25.00947779 C62.71746466 25.00976097 57.53672402 25.02418257 52.35521698 25.07383156 C47.47914609 25.1194092 42.60492739 25.12172075 37.72875786 25.09114265 C35.94214117 25.08723974 34.15541361 25.0986344 32.36901283 25.12668228 C18.8883722 25.32503654 18.8883722 25.32503654 14.21134186 22.04324913 C12.17801886 19.79060999 10.58133877 17.58252784 9 15 C8.09665176 13.85653863 7.18128141 12.72239115 6.25 11.6015625 C5.13625 10.12816406 5.13625 10.12816406 4 8.625 C3.236875 7.62726563 2.47375 6.62953125 1.6875 5.6015625 C0 3 0 3 0 0 Z " fill="#708692" transform="translate(28,179)"/>
<path d="M0 0 C1.85629263 2.78443895 2.55954463 4.51853636 3.41015625 7.6796875 C3.67344727 8.65341309 3.93673828 9.62713867 4.20800781 10.63037109 C4.48999023 11.70109863 4.77197266 12.77182617 5.0625 13.875 C5.36124023 14.99600098 5.65998047 16.11700195 5.96777344 17.27197266 C9.69469599 31.410344 13.11242186 45.62832794 16.51011658 59.84884644 C17.75787965 65.05726036 19.09097774 70.23942332 20.49316406 75.40869141 C21 78 21 78 21 84 C-3.09 84 -27.18 84 -52 84 C-50.87411117 74.99288933 -50.87411117 74.99288933 -49.80078125 70.55859375 C-49.56407715 69.57415283 -49.32737305 68.58971191 -49.08349609 67.57543945 C-48.82906738 66.53991943 -48.57463867 65.50439941 -48.3125 64.4375 C-48.04775879 63.34848389 -47.78301758 62.25946777 -47.51025391 61.13745117 C-43.89782804 46.36875323 -40.1240657 31.63956905 -35.87890625 17.0390625 C-34.52994056 12.37463893 -33.26297561 7.68831857 -32 3 C-30.68 3 -29.36 3 -28 3 C-27.34 3.66 -26.68 4.32 -26 5 C-20.09453873 7.04829062 -12.16278137 7.31941331 -6.40625 4.91796875 C-4.07609982 3.45318231 -1.94783154 1.94783154 0 0 Z " fill="#1A1A3B" transform="translate(153,82)"/>
<path d="M0 0 C0.33 0 0.66 0 1 0 C1 3.63 1 7.26 1 11 C-20.45 11.33 -41.9 11.66 -64 12 C-64 42.03 -64 72.06 -64 103 C-46.84 103 -29.68 103 -12 103 C-11.67 100.03 -11.34 97.06 -11 94 C-9.9375 90.9375 -9.9375 90.9375 -9 89 C-8 91 -8 91 -11 103 C13.09 103 37.18 103 62 103 C62.33 101.68 62.66 100.36 63 99 C63 100.32 63 101.64 63 103 C80.16 102.67 97.32 102.34 115 102 C115 71.97 115 41.94 115 11 C99.49 10.67 83.98 10.34 68 10 C69.32 9.34 70.64 8.68 72 8 C72.33 6.68 72.66 5.36 73 4 C88.18 4 103.36 4 119 4 C119 38.98 119 73.96 119 110 C56.96 110 -5.08 110 -69 110 C-69 74.69 -69 39.38 -69 3 C-47.22 3 -25.44 3 -3 3 C-3 5.31 -3 7.62 -3 10 C-2.01 10 -1.02 10 0 10 C0 6.7 0 3.4 0 0 Z " fill="#718993" transform="translate(112,63)"/>
<path d="M0 0 C1.02478203 -0.00065712 1.02478203 -0.00065712 2.07026672 -0.00132751 C4.3268397 0.00076135 6.58266827 0.02409581 8.83911133 0.04760742 C10.4042368 0.05320306 11.96936752 0.05747331 13.53450012 0.06047058 C17.65280682 0.07192199 21.77079583 0.10139148 25.88897705 0.13458252 C30.09171247 0.16527717 34.29449924 0.17897461 38.49731445 0.1940918 C46.74290291 0.2262611 54.98823322 0.27746077 63.23364258 0.34057617 C63.23364258 3.97057617 63.23364258 7.60057617 63.23364258 11.34057617 C62.24364258 11.34057617 61.25364258 11.34057617 60.23364258 11.34057617 C60.23364258 9.03057617 60.23364258 6.72057617 60.23364258 4.34057617 C38.45364258 4.34057617 16.67364258 4.34057617 -5.76635742 4.34057617 C-5.76635742 39.98057617 -5.76635742 75.62057617 -5.76635742 112.34057617 C56.93364258 112.01057617 119.63364258 111.68057617 184.23364258 111.34057617 C184.23364258 112.66057617 184.23364258 113.98057617 184.23364258 115.34057617 C165.02717933 116.44505645 145.85161479 116.48959658 126.62151909 116.47490168 C122.1926251 116.47233095 117.76373296 116.47472785 113.33483887 116.47628784 C105.9220339 116.47809296 98.50923898 116.47574401 91.09643555 116.47094727 C82.54201414 116.46547555 73.98761646 116.46729492 65.43319559 116.47277367 C58.04584504 116.47731399 50.65850161 116.4779518 43.27115011 116.475335 C38.87652795 116.47378142 34.48191696 116.47355385 30.08729553 116.47687149 C25.96994601 116.4797647 21.8526272 116.47774791 17.73528099 116.47197723 C16.22884866 116.4706588 14.72241372 116.47102813 13.21598244 116.4732399 C11.15489937 116.47598674 9.09391383 116.47252773 7.03283691 116.46755981 C5.88189293 116.46718279 4.73094894 116.46680576 3.54512787 116.46641731 C-5.60537406 116.11868525 -5.60537406 116.11868525 -8.68004799 114.05799103 C-10.07312043 111.85559525 -10.14361687 110.46355565 -10.14730835 107.86193848 C-10.15576782 106.94500717 -10.16422729 106.02807587 -10.17294312 105.08335876 C-10.16687042 104.07962723 -10.16079773 103.07589569 -10.15454102 102.04174805 C-10.15979797 100.98298965 -10.16505493 99.92423126 -10.17047119 98.83338928 C-10.18370101 95.32521924 -10.17492229 91.81750102 -10.16479492 88.30932617 C-10.16681479 85.87699293 -10.1697255 83.44466027 -10.17349243 81.0123291 C-10.17791984 75.911237 -10.17147117 70.81030234 -10.1574707 65.70922852 C-10.14037879 59.1617047 -10.15021772 52.61454977 -10.1681881 46.06703949 C-10.17901457 41.04340827 -10.17558478 36.0198649 -10.16780472 30.99623108 C-10.16579957 28.58162899 -10.16827295 26.167019 -10.17524338 23.75242615 C-10.18283898 20.38120309 -10.17127962 17.01058234 -10.15454102 13.6394043 C-10.16061371 12.63567276 -10.1666864 11.63194122 -10.17294312 10.59779358 C-10.16448364 9.68086227 -10.15602417 8.76393097 -10.14730835 7.81921387 C-10.14617727 7.02207222 -10.1450462 6.22493057 -10.14388084 5.40363312 C-9.11101033 -0.24070724 -4.92595213 -0.02653116 0 0 Z " fill="#282944" transform="translate(48.766357421875,61.659423828125)"/>
<path d="M0 0 C1.87664337 0.01561981 1.87664337 0.01561981 3.79119873 0.03155518 C5.1371736 0.04879984 6.48314125 0.06661522 7.82910156 0.08496094 C9.22438494 0.10167691 10.61966897 0.11833862 12.01495361 0.13494873 C14.92654545 0.17125837 17.83802483 0.21246299 20.74951172 0.25634766 C24.48076799 0.31158695 28.21195967 0.34798294 31.94347763 0.37997818 C34.81922318 0.40781244 37.69467016 0.44885846 40.57019806 0.49358368 C41.94645561 0.51276997 43.32279031 0.52707061 44.69915009 0.53638458 C46.61859817 0.55069361 48.53786138 0.58541889 50.45703125 0.62109375 C51.54844421 0.63521301 52.63985718 0.64933228 53.76434326 0.66387939 C56.46972656 1.06933594 56.46972656 1.06933594 58.28302002 2.22235107 C61.49188667 7.21661706 60.61785963 14.11663884 60.61499023 19.85083008 C60.61834885 20.81903183 60.62170746 21.78723358 60.62516785 22.78477478 C60.63464163 25.97469374 60.63661889 29.16456005 60.63769531 32.35449219 C60.64090939 34.57596356 60.64427358 36.79743471 60.64778137 39.01890564 C60.65376299 43.6699167 60.65562217 48.3209092 60.6550293 52.97192383 C60.6549275 58.93280123 60.66860175 64.89355998 60.68580151 70.85440922 C60.69691394 75.43973844 60.69894877 80.02503886 60.69841957 84.61038017 C60.69959998 86.80841927 60.70402515 89.00645911 60.71175194 91.20448494 C60.72154032 94.27548715 60.7186787 97.34623001 60.71264648 100.41723633 C60.71826599 101.32490753 60.7238855 102.23257874 60.72967529 103.16775513 C60.70761912 107.58277654 60.55353682 111.05594857 58.46972656 115.06933594 C57.80972656 115.06933594 57.14972656 115.06933594 56.46972656 115.06933594 C56.13972656 114.40933594 55.80972656 113.74933594 55.46972656 113.06933594 C-6.90027344 113.06933594 -69.27027344 113.06933594 -133.53027344 113.06933594 C-133.53027344 112.73933594 -133.53027344 112.40933594 -133.53027344 112.06933594 C-71.49027344 112.06933594 -9.45027344 112.06933594 54.46972656 112.06933594 C54.46972656 77.08933594 54.46972656 42.10933594 54.46972656 6.06933594 C39.28972656 6.06933594 24.10972656 6.06933594 8.46972656 6.06933594 C8.13972656 7.71933594 7.80972656 9.36933594 7.46972656 11.06933594 C5.28319917 11.40899068 3.09544631 11.74076071 0.90722656 12.06933594 C-0.3109375 12.25496094 -1.52910156 12.44058594 -2.78417969 12.63183594 C-6.40655192 13.05488671 -9.8873939 13.14435019 -13.53027344 13.06933594 C-13.53027344 9.10933594 -13.53027344 5.14933594 -13.53027344 1.06933594 C-8.96704743 0.33778929 -4.61942524 -0.046156 0 0 Z " fill="#525F73" transform="translate(176.5302734375,60.9306640625)"/>
<path d="M0 0 C72.27 0 144.54 0 219 0 C217.87421748 5.62891259 217.87421748 5.62891259 215.8203125 8.6640625 C215.16869141 9.63472656 215.16869141 9.63472656 214.50390625 10.625 C214.04886719 11.285 213.59382812 11.945 213.125 12.625 C212.67769531 13.29273438 212.23039063 13.96046875 211.76953125 14.6484375 C209.6951032 17.70806589 207.68103159 20.43752074 205 23 C205 21.68 205 20.36 205 19 C205.66 19 206.32 19 207 19 C206.896875 18.154375 206.79375 17.30875 206.6875 16.4375 C207.05787937 12.3633269 208.30415738 10.71706991 210.80859375 7.61328125 C212.20739801 5.89313513 212.20739801 5.89313513 213 3 C111.03 3.495 111.03 3.495 7 4 C11.26296051 11.48782001 11.26296051 11.48782001 15 15 C15.41731888 15.87327438 15.83463776 16.74654877 16.26460266 17.64628601 C17.82833655 20.31288281 17.82833655 20.31288281 21.01823425 20.63923645 C22.2551149 20.64589828 23.49199554 20.65256012 24.76635742 20.65942383 C25.79113945 20.67514938 25.79113945 20.67514938 26.83662415 20.69119263 C29.09336561 20.71997994 31.34857632 20.71364781 33.60546875 20.70703125 C35.17061795 20.72014426 36.73575021 20.73544727 38.30085754 20.75285339 C42.41910701 20.79276371 46.53691442 20.80289762 50.65533447 20.80688477 C54.85825055 20.81620499 59.06090565 20.85361142 63.26367188 20.88867188 C71.50911928 20.95330894 79.75431109 20.98649867 88 21 C87.938125 20.05125 87.87625 19.1025 87.8125 18.125 C87.9053125 16.578125 87.9053125 16.578125 88 15 C91.74004317 12.50663789 94.62561609 12.74518772 98.94921875 12.8046875 C100.10814384 12.80893234 100.10814384 12.80893234 101.29048157 12.81326294 C103.75631243 12.82445122 106.22177906 12.84955297 108.6875 12.875 C110.36002079 12.88503157 112.03254728 12.89415711 113.70507812 12.90234375 C117.80352559 12.92438608 121.90170106 12.95890637 126 13 C126 13.66 126 14.32 126 15 C114.78 15.33 103.56 15.66 92 16 C91.67 17.32 91.34 18.64 91 20 C103.21 19.67 115.42 19.34 128 19 C128.66 17.68 129.32 16.36 130 15 C130 17.31 130 19.62 130 22 C115.1617937 22.25746005 100.32388461 22.45117712 85.4838953 22.56993389 C78.59258736 22.62655248 71.70267052 22.70367363 64.81225586 22.82983398 C58.15981201 22.95157868 51.5084308 23.01516632 44.85482597 23.04364967 C42.31935344 23.06394123 39.78395805 23.1035689 37.24910164 23.16303062 C16.31297893 23.63451279 16.31297893 23.63451279 11.51754761 19.63613892 C9.20399072 16.8450449 7.61313979 14.23230434 6 11 C4.84596237 9.4741057 3.66419131 7.96812284 2.4375 6.5 C0 3.38211382 0 3.38211382 0 0 Z " fill="#515669" transform="translate(28,179)"/>
<path d="M0 0 C1.0209375 0.16371094 2.041875 0.32742187 3.09375 0.49609375 C9.53825154 1.30165644 16.0171007 1.10532403 22.5 1.0625 C23.799375 1.05798828 25.09875 1.05347656 26.4375 1.04882812 C29.62504825 1.0371092 32.81249955 1.02070219 36 1 C36.0476249 2.42024241 36.08136274 3.84095419 36.109375 5.26171875 C36.12967773 6.05280029 36.14998047 6.84388184 36.17089844 7.65893555 C35.82007318 12.46474038 33.04968752 15.6703958 30.125 19.375 C27.45925649 21.41350975 25.30301909 21.69972554 22 22 C22 22.66 22 23.32 22 24 C11.11971831 24.57042254 11.11971831 24.57042254 7 21 C7 20.34 7 19.68 7 19 C6.401875 18.7525 5.80375 18.505 5.1875 18.25 C2.55989703 16.74851259 1.53429984 15.61528381 0 13 C-0.29296875 9.765625 -0.29296875 9.765625 -0.1875 6.25 C-0.16042969 5.07953125 -0.13335937 3.9090625 -0.10546875 2.703125 C-0.07066406 1.81109375 -0.03585938 0.9190625 0 0 Z " fill="#1C1D3C" transform="translate(120,63)"/>
<path d="M0 0 C2.35670993 0.82715228 4.69199983 1.7167828 7.0078125 2.65234375 C7.65571747 2.91253799 8.30362244 3.17273224 8.97116089 3.44081116 C10.33201087 3.98856184 11.69170918 4.5391817 13.05029297 5.0925293 C15.12356992 5.93691757 17.20006678 6.77292873 19.27734375 7.60742188 C30.21526166 12.01983145 30.21526166 12.01983145 34 14 C34 14.66 34 15.32 34 16 C31.75157909 16.98293267 29.50140453 17.96144466 27.25 18.9375 C26.61578125 19.21529297 25.9815625 19.49308594 25.328125 19.77929688 C22.25632842 21.10720894 19.28999974 22.34366167 16 23 C17.33841464 27.4703049 19.1219782 31.2396073 21.5 35.25 C22.1084375 36.28640625 22.716875 37.3228125 23.34375 38.390625 C24.88838834 41.03376558 24.88838834 41.03376558 27 43 C25.35 43 23.7 43 22 43 C21.46890625 42.03578125 20.9378125 41.0715625 20.390625 40.078125 C19.6774335 38.80188759 18.96387224 37.52585676 18.25 36.25 C17.90195313 35.61578125 17.55390625 34.9815625 17.1953125 34.328125 C15.14139541 30.67671683 13.06108431 27.90869267 10 25 C9.30686092 23.34416775 8.63525576 21.67889021 8 20 C7.34 19.67 6.68 19.34 6 19 C6 18.34 6 17.68 6 17 C5.29875 16.87625 4.5975 16.7525 3.875 16.625 C1 16 1 16 -1.8125 15 C-5.57695471 13.8189946 -9.07927226 13.40559252 -13 13 C-13 12.01 -13 11.02 -13 10 C-11.35 10 -9.7 10 -8 10 C-8.165 9.401875 -8.33 8.80375 -8.5 8.1875 C-9.22501134 5.01557539 -9.03305498 3.09916494 -8 0 C-5.05610523 -1.47194738 -3.18815478 -0.70083019 0 0 Z " fill="#788E97" transform="translate(152,19)"/>
<path d="M0 0 C0.33 0 0.66 0 1 0 C1 3.63 1 7.26 1 11 C-20.45 11.33 -41.9 11.66 -64 12 C-64.33 41.04 -64.66 70.08 -65 100 C-65.33 100 -65.66 100 -66 100 C-66.02313347 88.169619 -66.04092023 76.33924335 -66.05181217 64.50884438 C-66.05703879 59.01597929 -66.06413246 53.52312964 -66.07543945 48.03027344 C-66.08627614 42.73295311 -66.09227851 37.43564766 -66.09487724 32.13831711 C-66.09673007 30.11363872 -66.10034799 28.08896118 -66.10573006 26.06428909 C-66.11295083 23.23636339 -66.1139905 20.40849979 -66.11352539 17.58056641 C-66.11712067 16.73683975 -66.12071594 15.8931131 -66.12442017 15.02381897 C-66.11405216 9.22810432 -66.11405216 9.22810432 -65 7 C-65.99 6.67 -66.98 6.34 -68 6 C-68 5.34 -68 4.68 -68 4 C-46.88 4 -25.76 4 -4 4 C-4 5.98 -4 7.96 -4 10 C-2.68 10 -1.36 10 0 10 C0 6.7 0 3.4 0 0 Z " fill="#758E96" transform="translate(112,63)"/>
<path d="M0 0 C1.02478203 -0.00065712 1.02478203 -0.00065712 2.07026672 -0.00132751 C4.3268397 0.00076135 6.58266827 0.02409581 8.83911133 0.04760742 C10.4042368 0.05320306 11.96936752 0.05747331 13.53450012 0.06047058 C17.65280682 0.07192199 21.77079583 0.10139148 25.88897705 0.13458252 C30.09171247 0.16527717 34.29449924 0.17897461 38.49731445 0.1940918 C46.74290291 0.2262611 54.98823322 0.27746077 63.23364258 0.34057617 C63.23364258 3.97057617 63.23364258 7.60057617 63.23364258 11.34057617 C62.24364258 11.34057617 61.25364258 11.34057617 60.23364258 11.34057617 C60.23364258 9.03057617 60.23364258 6.72057617 60.23364258 4.34057617 C38.45364258 4.34057617 16.67364258 4.34057617 -5.76635742 4.34057617 C-5.76635742 39.65057617 -5.76635742 74.96057617 -5.76635742 111.34057617 C-6.09635742 111.34057617 -6.42635742 111.34057617 -6.76635742 111.34057617 C-7.09635742 76.36057617 -7.42635742 41.38057617 -7.76635742 5.34057617 C-8.09635742 40.65057617 -8.42635742 75.96057617 -8.76635742 112.34057617 C-9.09635742 112.34057617 -9.42635742 112.34057617 -9.76635742 112.34057617 C-9.8364081 98.18059006 -9.88912682 84.02063077 -9.92179394 69.86050701 C-9.9374701 63.28584992 -9.95874412 56.71130898 -9.99267578 50.13671875 C-10.02519941 43.79548305 -10.04319573 37.45435929 -10.05098915 31.11304665 C-10.05654523 28.69005381 -10.06739444 26.2670673 -10.08354759 23.84412193 C-10.10522853 20.45828235 -10.10832822 17.0729092 -10.10693359 13.68701172 C-10.11771942 12.67856705 -10.12850525 11.67012238 -10.13961792 10.63111877 C-10.13549393 9.70985199 -10.13136993 8.78858521 -10.12712097 7.83940125 C-10.12988635 7.03836314 -10.13265173 6.23732504 -10.13550091 5.41201305 C-9.12769694 -0.24324672 -4.92345172 -0.02651769 0 0 Z " fill="#3C3F58" transform="translate(48.766357421875,61.659423828125)"/>
<path d="M0 0 C0.33 1.32 0.66 2.64 1 4 C0.34 4 -0.32 4 -1 4 C-1.33 5.65 -1.66 7.3 -2 9 C-63.71 9 -125.42 9 -189 9 C-189.33 8.34 -189.66 7.68 -190 7 C-189.18206467 6.99576806 -188.36412933 6.99153612 -187.52140808 6.98717594 C-167.50951302 6.88333416 -147.4976494 6.77462289 -127.48580933 6.66066074 C-117.80777067 6.60566119 -108.12972836 6.55223857 -98.45166016 6.50268555 C-90.0045852 6.4594312 -81.55753375 6.41305798 -73.11049557 6.36312145 C-68.64849068 6.33684743 -64.18648946 6.31201129 -59.72445679 6.29092598 C-49.49480279 6.24174661 -39.26635745 6.16064525 -29.03747559 6.02469492 C-27.0553143 6.00067043 -25.0730629 5.98448135 -23.09082031 5.9685173 C-19.66364646 5.93548083 -16.23890893 5.87042372 -12.8125 5.79272461 C-11.83821045 5.78820817 -10.8639209 5.78369173 -9.86010742 5.77903843 C-7.46022087 5.70384097 -5.31996087 5.61682874 -3 5 C-0.79734851 2.63505195 -0.79734851 2.63505195 0 0 Z " fill="#7C7D8D" transform="translate(234,194)"/>
<path d="M0 0 C7.52969652 -0.02526648 15.0593822 -0.04283141 22.58911133 -0.05493164 C25.15291757 -0.0599737 27.71672091 -0.06680714 30.28051758 -0.07543945 C33.95655021 -0.08751064 37.63254498 -0.09322942 41.30859375 -0.09765625 C42.46274277 -0.10281754 43.61689178 -0.10797882 44.80601501 -0.11329651 C46.3975515 -0.11340981 46.3975515 -0.11340981 48.02124023 -0.11352539 C48.96055893 -0.115746 49.89987762 -0.11796661 50.86766052 -0.12025452 C53 0 53 0 54 1 C54.0954693 2.40411317 54.12188529 3.81299809 54.12025452 5.22035217 C54.12162918 6.13045547 54.12300385 7.04055878 54.12442017 7.97824097 C54.11902725 9.48766769 54.11902725 9.48766769 54.11352539 11.02758789 C54.11367142 12.08111954 54.11381744 13.13465118 54.1139679 14.22010803 C54.11326826 17.720978 54.10547348 21.22179552 54.09765625 24.72265625 C54.09579225 27.14261343 54.09436826 29.56257099 54.09336853 31.98252869 C54.08954192 38.36615024 54.07971041 44.74974921 54.06866455 51.13336182 C54.05845351 57.64163914 54.05387157 64.1499201 54.04882812 70.65820312 C54.03808827 83.43881175 54.02120112 96.21940467 54 109 C53.34 109 52.68 109 52 109 C52 74.02 52 39.04 52 3 C35.5 3 19 3 2 3 C1.34 2.67 0.68 2.34 0 2 C0 1.34 0 0.68 0 0 Z " fill="#1E213C" transform="translate(181,63)"/>
<path d="M0 0 C5.33848672 -0.09894543 10.67643869 -0.17150414 16.015625 -0.21972656 C17.8314748 -0.23983061 19.64725995 -0.26711835 21.46289062 -0.30175781 C24.07438105 -0.35033039 26.68501498 -0.37298027 29.296875 -0.390625 C30.10743347 -0.41127014 30.91799194 -0.43191528 31.75311279 -0.45318604 C35.34981859 -0.45461492 37.55496391 -0.31041481 40.54394531 1.77441406 C42 4 42 4 42 8 C65.43 8 88.86 8 113 8 C113 8.33 113 8.66 113 9 C96.32232839 9.84579377 79.69717534 10.12888787 63 10.0625 C60.74869894 10.0574639 58.49739675 10.0529048 56.24609375 10.04882812 C50.83070396 10.03801505 45.41535759 10.02145168 40 10 C39.505 8.515 39.505 8.515 39 7 C38.67 7.33 38.34 7.66 38 8 C35.26105915 8.08858646 32.5474673 8.11523479 29.80859375 8.09765625 C28.98875504 8.0962413 28.16891632 8.09482635 27.32423401 8.09336853 C24.69528618 8.08775289 22.06642227 8.07519779 19.4375 8.0625 C17.65950643 8.05748701 15.88151154 8.05292376 14.10351562 8.04882812 C9.73564455 8.03777839 5.36783652 8.02050331 1 8 C1.33 6.35 1.66 4.7 2 3 C13.22 3 24.44 3 36 3 C36 2.34 36 1.68 36 1 C31.0519151 1.11810088 26.10403724 1.2423384 21.15625 1.37231445 C19.47237358 1.41567817 17.78845277 1.4573522 16.10449219 1.49731445 C13.68671276 1.55498234 11.26915705 1.6186865 8.8515625 1.68359375 C7.71867294 1.70866249 7.71867294 1.70866249 6.56289673 1.73423767 C2.65260201 1.77555107 2.65260201 1.77555107 -1 3 C-0.67 2.01 -0.34 1.02 0 0 Z " fill="#4E566B" transform="translate(118,191)"/>
<path d="M0 0 C21.78 0 43.56 0 66 0 C66 2.31 66 4.62 66 7 C65.67 7 65.34 7 65 7 C65 5.02 65 3.04 65 1 C43.88 1 22.76 1 1 1 C1.99 1.99 2.98 2.98 4 4 C4.25667802 6.96672538 4.33025085 9.71511794 4.26464844 12.67822266 C4.25693924 13.56462936 4.24923004 14.45103607 4.24128723 15.36430359 C4.21198186 18.29793157 4.1609542 21.23074821 4.109375 24.1640625 C4.08388231 26.19760721 4.05958544 28.23116723 4.03643799 30.26473999 C3.98484574 34.52693841 3.9233297 38.78883492 3.85400391 43.05078125 C3.76507847 48.52657097 3.69365937 54.00240364 3.62871933 59.47852516 C3.56608654 64.68629317 3.49410305 69.89392042 3.421875 75.1015625 C3.40892143 76.101982 3.39596786 77.1024015 3.38262177 78.13313675 C3.34460528 80.94905638 3.29987038 83.76478322 3.25292969 86.58056641 C3.24246109 87.4231752 3.23199249 88.265784 3.22120667 89.13392639 C3.11470189 94.88529811 3.11470189 94.88529811 2 96 C1.76636119 97.84891946 1.58696365 99.70488031 1.4375 101.5625 C1.35371094 102.57441406 1.26992188 103.58632812 1.18359375 104.62890625 C1.12300781 105.41136719 1.06242187 106.19382812 1 107 C0.67 107 0.34 107 0 107 C0 71.69 0 36.38 0 0 Z " fill="#6A7D8B" transform="translate(43,66)"/>
<path d="M0 0 C1.89116798 0.03014442 1.89116798 0.03014442 3.82054138 0.06089783 C5.17601764 0.08808557 6.53149143 0.11539655 7.88696289 0.14282227 C9.28942543 0.1671588 10.69189664 0.19100051 12.09437561 0.21437073 C15.76541095 0.27686052 19.43629064 0.3460243 23.10717773 0.41662598 C26.86117534 0.48762886 30.6152823 0.55225382 34.36938477 0.61743164 C41.72041727 0.74599066 49.07129696 0.88160761 56.42211914 1.02172852 C56.42211914 1.35172852 56.42211914 1.68172852 56.42211914 2.02172852 C39.26211914 2.02172852 22.10211914 2.02172852 4.42211914 2.02172852 C4.75211914 3.01172852 5.08211914 4.00172852 5.42211914 5.02172852 C6.41211914 5.35172852 7.40211914 5.68172852 8.42211914 6.02172852 C8.09211914 7.67172852 7.76211914 9.32172852 7.42211914 11.02172852 C5.23559175 11.36138326 3.04783889 11.69315329 0.85961914 12.02172852 C-0.96762695 12.30016602 -0.96762695 12.30016602 -2.83178711 12.58422852 C-6.45415934 13.00727929 -9.93500132 13.09674277 -13.57788086 13.02172852 C-13.57788086 9.06172852 -13.57788086 5.10172852 -13.57788086 1.02172852 C-8.9898134 0.28107133 -4.64458899 -0.08410725 0 0 Z " fill="#807B77" transform="translate(176.577880859375,60.978271484375)"/>
<path d="M0 0 C1.15892509 0.00424484 1.15892509 0.00424484 2.34126282 0.00857544 C4.80709368 0.01976372 7.27256031 0.04486547 9.73828125 0.0703125 C11.41080204 0.08034407 13.08332853 0.08946961 14.75585938 0.09765625 C18.85430684 0.11969858 22.95248231 0.15421887 27.05078125 0.1953125 C27.05078125 0.8553125 27.05078125 1.5153125 27.05078125 2.1953125 C15.83078125 2.5253125 4.61078125 2.8553125 -6.94921875 3.1953125 C-7.27921875 4.5153125 -7.60921875 5.8353125 -7.94921875 7.1953125 C4.26078125 6.8653125 16.47078125 6.5353125 29.05078125 6.1953125 C29.71078125 4.8753125 30.37078125 3.5553125 31.05078125 2.1953125 C31.05078125 4.5053125 31.05078125 6.8153125 31.05078125 9.1953125 C-6.89921875 9.1953125 -44.84921875 9.1953125 -83.94921875 9.1953125 C-85.94921875 5.1953125 -85.94921875 5.1953125 -85.57421875 2.9453125 C-85.36796875 2.3678125 -85.16171875 1.7903125 -84.94921875 1.1953125 C-84.43111633 2.16937042 -83.91301392 3.14342834 -83.37921143 4.14700317 C-81.24524578 7.46332494 -81.24524578 7.46332494 -77.81072998 7.95480347 C-75.95873993 7.9614653 -75.95873993 7.9614653 -74.06933594 7.96826172 C-73.04433487 7.98420631 -73.04433487 7.98420631 -71.99862671 8.00047302 C-69.74703148 8.02850858 -67.49778337 8.01447227 -65.24609375 8 C-63.68237258 8.01125092 -62.1186683 8.02513191 -60.55499268 8.04153442 C-56.44486114 8.07758993 -52.33547315 8.07794399 -48.22521973 8.07086182 C-44.02891721 8.06994927 -39.8328939 8.10280215 -35.63671875 8.1328125 C-27.40744971 8.18669093 -19.17865961 8.20285474 -10.94921875 8.1953125 C-11.01109375 7.2465625 -11.07296875 6.2978125 -11.13671875 5.3203125 C-11.04390625 3.7734375 -11.04390625 3.7734375 -10.94921875 2.1953125 C-7.20917558 -0.29804961 -4.32360266 -0.05949978 0 0 Z " fill="#1E1D3A" transform="translate(126.94921875,191.8046875)"/>
<path d="M0 0 C68.97 0 137.94 0 209 0 C208.67 0.99 208.34 1.98 208 3 C208 2.34 208 1.68 208 1 C106.03 1.495 106.03 1.495 2 2 C3.65 4.64 5.3 7.28 7 10 C8.375 13.375 8.375 13.375 9 16 C8.67 16.66 8.34 17.32 8 18 C6.32742872 15.87941855 4.66184582 13.75395924 3 11.625 C2.28457031 10.72007812 2.28457031 10.72007812 1.5546875 9.796875 C-2 5.2265625 -2 5.2265625 -2 3 C-1.34 3 -0.68 3 0 3 C0 2.01 0 1.02 0 0 Z " fill="#4D5A6E" transform="translate(33,181)"/>
<path d="M0 0 C70.95 0 141.9 0 215 0 C214.67 0.66 214.34 1.32 214 2 C144.7 1.67 75.4 1.34 4 1 C4 1.99 4 2.98 4 4 C2.68 3.67 1.36 3.34 0 3 C0 2.01 0 1.02 0 0 Z " fill="#232B40" transform="translate(29,180)"/>
<path d="M0 0 C1.80208504 3.60417008 2.25019197 4.60470285 2.25396729 8.31968689 C2.25960693 9.17620346 2.26524658 10.03272003 2.27105713 10.91519165 C2.26700867 11.84673065 2.26296021 12.77826965 2.25878906 13.73803711 C2.2622937 14.72545395 2.26579834 15.71287079 2.26940918 16.73020935 C2.27821542 19.99599222 2.27238071 23.26155865 2.265625 26.52734375 C2.26697207 28.7965143 2.26891296 31.06568457 2.27142334 33.33485413 C2.27437319 38.09199774 2.27008175 42.84906628 2.26074219 47.60620117 C2.24935429 53.70391036 2.25590389 59.80144337 2.26788712 65.89914608 C2.27511495 70.58571194 2.27281341 75.27223606 2.26763153 79.95880318 C2.26629726 82.20707787 2.26793498 84.45535636 2.27259064 86.70362663 C2.27767021 89.84670928 2.26992497 92.98950693 2.25878906 96.13256836 C2.26283752 97.06208313 2.26688599 97.9915979 2.27105713 98.94927979 C2.2417986 103.40752199 2.11478096 106.95178655 0 111 C-0.66 111 -1.32 111 -2 111 C-3.04976964 107.85069107 -3.10131595 105.61185544 -3.0625 102.3125 C-3.05347656 101.31863281 -3.04445312 100.32476562 -3.03515625 99.30078125 C-3.01775391 98.16189453 -3.01775391 98.16189453 -3 97 C-2.67 97 -2.34 97 -2 97 C-2 100.3 -2 103.6 -2 107 C-1.34 107 -0.68 107 0 107 C0 71.69 0 36.38 0 0 Z " fill="#747386" transform="translate(235,65)"/>
<path d="M0 0 C8.09966614 -0.39191933 15.56964211 0.14136843 22 5.5 C24 8 24 8 26 11 C26.99 11.66 27.98 12.32 29 13 C29.70402177 14.98715822 30.36515933 16.98967123 31 19 C32.11382176 21.11205823 33.28214944 23.19616727 34.5 25.25 C35.1084375 26.28640625 35.716875 27.3228125 36.34375 28.390625 C37.88838834 31.03376558 37.88838834 31.03376558 40 33 C38.35 33 36.7 33 35 33 C34.46890625 32.03578125 33.9378125 31.0715625 33.390625 30.078125 C32.6774335 28.80188759 31.96387224 27.52585676 31.25 26.25 C30.90195313 25.61578125 30.55390625 24.9815625 30.1953125 24.328125 C28.14139541 20.67671683 26.06108431 17.90869267 23 15 C22.30686092 13.34416775 21.63525576 11.67889021 21 10 C20.34 9.67 19.68 9.34 19 9 C19 8.34 19 7.68 19 7 C18.29875 6.87625 17.5975 6.7525 16.875 6.625 C14 6 14 6 11.1875 5 C7.42304529 3.8189946 3.92072774 3.40559252 0 3 C0 2.01 0 1.02 0 0 Z " fill="#999D6E" transform="translate(139,29)"/>
<path d="M0 0 C12.21 0 24.42 0 37 0 C37 1.32 37 2.64 37 4 C24.79 4 12.58 4 0 4 C0 2.68 0 1.36 0 0 Z " fill="#D9DAE2" transform="translate(119,195)"/>
<path d="M0 0 C0 3.63 0 7.26 0 11 C-4.62 11 -9.24 11 -14 11 C-14 7.7 -14 4.4 -14 1 C-9.27685687 0.22887459 -4.78478822 -0.09764874 0 0 Z " fill="#A0B2B9" transform="translate(228,185)"/>
<path d="M0 0 C4.29 0 8.58 0 13 0 C13.33 3.3 13.66 6.6 14 10 C9.38 10.33 4.76 10.66 0 11 C0 7.37 0 3.74 0 0 Z " fill="#6D828C" transform="translate(163,63)"/>
<path d="M0 0 C1.41655793 -0.0272415 2.83327045 -0.04650467 4.25 -0.0625 C5.43335938 -0.07990234 5.43335938 -0.07990234 6.640625 -0.09765625 C8.90691002 -0.00385306 10.8288895 0.36758937 13 1 C13 1.66 13 2.32 13 3 C10.69 3 8.38 3 6 3 C7.12534105 4.35618499 7.12534105 4.35618499 10.0625 4.0625 C11.031875 4.041875 12.00125 4.02125 13 4 C13 6.31 13 8.62 13 11 C8.38 11 3.76 11 -1 11 C-1 3.125 -1 3.125 0 0 Z " fill="#99ABB3" transform="translate(53,185)"/>
<path d="M0 0 C2.04119788 1.61594832 4.04072937 3.2856382 6 5 C6 5.66 6 6.32 6 7 C6.9590625 7.2165625 6.9590625 7.2165625 7.9375 7.4375 C10 8 10 8 11 9 C12.68183948 9.23287008 14.3712416 9.41264166 16.0625 9.5625 C16.98160156 9.64628906 17.90070313 9.73007813 18.84765625 9.81640625 C19.55792969 9.87699219 20.26820313 9.93757813 21 10 C21 9.34 21 8.68 21 8 C22.0725 7.566875 23.145 7.13375 24.25 6.6875 C27.16272646 5.44678487 29.56036166 4.04929621 32 2 C32.495 3.485 32.495 3.485 33 5 C27.42840793 9.81182952 24.19457733 12.28529284 16.5625 12.25 C15.45003906 12.25515625 14.33757812 12.2603125 13.19140625 12.265625 C8.59656303 11.88319007 5.04421198 10.09699881 1 8 C0.34 8.99 -0.32 9.98 -1 11 C-1 9.35 -1 7.7 -1 6 C-0.34 6 0.32 6 1 6 C0.67 4.02 0.34 2.04 0 0 Z " fill="#8C9FAB" transform="translate(121,77)"/>
<path d="M0 0 C0.495 1.98 0.495 1.98 1 4 C0.34 4 -0.32 4 -1 4 C-1 5.32 -1 6.64 -1 8 C-25.09 8 -49.18 8 -74 8 C-74 7.67 -74 7.34 -74 7 C-72.70191406 6.97494385 -71.40382812 6.9498877 -70.06640625 6.92407227 C-58.65954444 6.70163195 -47.25329515 6.46059849 -35.84735107 6.19503784 C-30.11175813 6.06321294 -24.37725195 5.95919528 -18.640625 5.88671875 C-16.51039254 5.84228766 -14.38018047 5.79685705 -12.25 5.75 C-11.31414062 5.74814697 -10.37828125 5.74629395 -9.4140625 5.74438477 C-6.6474708 5.72457373 -6.6474708 5.72457373 -3 5 C-0.8384699 2.62755043 -0.8384699 2.62755043 0 0 Z " fill="#373A50" transform="translate(234,194)"/>
<path d="M0 0 C2 1 2 1 3.20210266 3.52128601 C4.80263328 6.31049107 4.80263328 6.31049107 8.01823425 6.63923645 C9.2551149 6.64589828 10.49199554 6.65256012 11.76635742 6.65942383 C12.79113945 6.67514938 12.79113945 6.67514938 13.83662415 6.69119263 C16.09336561 6.71997994 18.34857632 6.71364781 20.60546875 6.70703125 C22.17061795 6.72014426 23.73575021 6.73544727 25.30085754 6.75285339 C29.41910701 6.79276371 33.53691442 6.80289762 37.65533447 6.80688477 C41.85825055 6.81620499 46.06090565 6.85361142 50.26367188 6.88867188 C58.50911928 6.95330894 66.75431109 6.98649867 75 7 C75.33 6.34 75.66 5.68 76 5 C76.495 6.485 76.495 6.485 77 8 C52.25 8 27.5 8 2 8 C0 4 0 4 0 0 Z " fill="#252B43" transform="translate(41,193)"/>
<path d="M0 0 C0.66 0 1.32 0 2 0 C1.47311505 4.7783014 -0.77171087 8.21182805 -3.375 12.125 C-3.77460938 12.74503906 -4.17421875 13.36507812 -4.5859375 14.00390625 C-6.5021938 16.93502197 -8.36580393 19.67171057 -11 22 C-11 20.68 -11 19.36 -11 18 C-10.34 18 -9.68 18 -9 18 C-9.12375 17.175 -9.2475 16.35 -9.375 15.5 C-8.83653859 10.47436021 -6.13155324 7.80491832 -3 4 C-2.34 3.01 -1.68 2.02 -1 1 C-0.67 0.67 -0.34 0.34 0 0 Z " fill="#4D5268" transform="translate(244,180)"/>
<path d="M0 0 C3.23581185 4.0371571 5.62574964 8.53621311 8.12695312 13.04296875 C9.5878894 15.64448477 10.87905746 17.87905746 13 20 C11.35 20 9.7 20 8 20 C7.45730469 19.04738281 6.91460937 18.09476563 6.35546875 17.11328125 C5.63284161 15.84633756 4.91018373 14.57941141 4.1875 13.3125 C3.83107422 12.68666016 3.47464844 12.06082031 3.10742188 11.41601562 C1.1116542 7.91884475 -0.91268705 4.44373714 -3 1 C-2.01 0.67 -1.02 0.34 0 0 Z " fill="#EEDC98" transform="translate(166,42)"/>
<path d="M0 0 C4.29 0 8.58 0 13 0 C13 0.99 13 1.98 13 3 C9.7 3 6.4 3 3 3 C3 5.31 3 7.62 3 10 C2.01 10 1.02 10 0 10 C0 6.7 0 3.4 0 0 Z " fill="#22253A" transform="translate(163,63)"/>
<path d="M0 0 C4.15802331 5.01830399 7.3044986 9.64186974 9 16 C8.67 16.66 8.34 17.32 8 18 C6.32742872 15.87941855 4.66184582 13.75395924 3 11.625 C2.28457031 10.72007812 2.28457031 10.72007812 1.5546875 9.796875 C-2 5.2265625 -2 5.2265625 -2 3 C-1.34 3 -0.68 3 0 3 C0 2.01 0 1.02 0 0 Z " fill="#43495D" transform="translate(33,181)"/>
<path d="M0 0 C3.3 0.33 6.6 0.66 10 1 C10 1.66 10 2.32 10 3 C7.69 3 5.38 3 3 3 C4.12534105 4.35618499 4.12534105 4.35618499 7.0625 4.0625 C8.031875 4.041875 9.00125 4.02125 10 4 C10 4.99 10 5.98 10 7 C7.03 7 4.06 7 1 7 C0 3 0 3 0 0 Z " fill="#A8BAC0" transform="translate(56,185)"/>
<path d="M0 0 C0.33 0.99 0.66 1.98 1 3 C-0.70828921 5.10633718 -1.52148416 5.93801608 -4.26171875 6.29296875 C-5.06222656 6.25816406 -5.86273438 6.22335938 -6.6875 6.1875 C-7.49574219 6.16042969 -8.30398437 6.13335937 -9.13671875 6.10546875 C-9.75160156 6.07066406 -10.36648437 6.03585938 -11 6 C-11 5.01 -11 4.02 -11 3 C-10.37351563 2.86722656 -9.74703125 2.73445312 -9.1015625 2.59765625 C-8.28429687 2.42105469 -7.46703125 2.24445313 -6.625 2.0625 C-5.81289062 1.88847656 -5.00078125 1.71445313 -4.1640625 1.53515625 C-1.970537 1.07669307 -1.970537 1.07669307 0 0 Z " fill="#88938C" transform="translate(213,193)"/>
<path d="M0 0 C5.03525121 1.28808752 7.49883033 3.21495171 11 7 C11.99 7.66 12.98 8.32 14 9 C13.34 9 12.68 9 12 9 C11.67 9.66 11.34 10.32 11 11 C10.01 11 9.02 11 8 11 C7.71125 10.195625 7.4225 9.39125 7.125 8.5625 C6.26737432 5.8673532 6.26737432 5.8673532 4 5 C4 4.34 4 3.68 4 3 C2.68 2.34 1.36 1.68 0 1 C0 0.67 0 0.34 0 0 Z " fill="#B0AD6C" transform="translate(154,33)"/>
<path d="M0 0 C2.04119788 1.61594832 4.04072937 3.2856382 6 5 C6 5.66 6 6.32 6 7 C7.32 7.33 8.64 7.66 10 8 C9.01 8.33 8.02 8.66 7 9 C7.33 9.66 7.66 10.32 8 11 C7.401875 10.690625 6.80375 10.38125 6.1875 10.0625 C3.91043228 8.89790296 3.91043228 8.89790296 1 8 C0.34 8.99 -0.32 9.98 -1 11 C-1 9.35 -1 7.7 -1 6 C-0.34 6 0.32 6 1 6 C0.67 4.02 0.34 2.04 0 0 Z " fill="#758394" transform="translate(121,77)"/>
<path d="M0 0 C0.66 0 1.32 0 2 0 C1.46884894 4.51478398 -0.36620292 7.34666857 -3 11 C-3.66 10.67 -4.32 10.34 -5 10 C-4.40101475 5.68730617 -3.07320219 3.07320219 0 0 Z " fill="#41455C" transform="translate(244,180)"/>
<path d="M0 0 C2.625 0.375 2.625 0.375 5 1 C5 1.66 5 2.32 5 3 C3.35 3 1.7 3 0 3 C0 3.99 0 4.98 0 6 C2.64 6 5.28 6 8 6 C8 6.33 8 6.66 8 7 C5.03 7 2.06 7 -1 7 C-1.625 4.625 -1.625 4.625 -2 2 C-1.34 1.34 -0.68 0.68 0 0 Z " fill="#798B81" transform="translate(139,26)"/>
<path d="M0 0 C1.875 0.1875 1.875 0.1875 4 1 C5.25 3.5625 5.25 3.5625 6 6 C4.34385343 6.38218767 2.67542976 6.71395102 1 7 C0 6 0 6 -0.0625 2.9375 C-0.041875 1.968125 -0.02125 0.99875 0 0 Z " fill="#E2BE2A" transform="translate(177,63)"/>
<path d="M0 0 C2.31 0 4.62 0 7 0 C7 0.66 7 1.32 7 2 C7.99 2.33 8.98 2.66 10 3 C2.25 4.125 2.25 4.125 0 3 C0 2.01 0 1.02 0 0 Z " fill="#97ABB1" transform="translate(214,186)"/>
<path d="M0 0 C0.66 0.99 1.32 1.98 2 3 C0.5 5 0.5 5 -2 7 C-4.75871627 7.35800135 -7.20097524 7.18660165 -10 7 C-8.17725047 5.78483364 -6.3280819 4.60668208 -4.4375 3.5 C-1.93582181 2.0902355 -1.93582181 2.0902355 0 0 Z " fill="#708190" transform="translate(152,79)"/>
<path d="M0 0 C4.38889325 0.66498383 7.9811485 2.18757677 12 4 C12 4.66 12 5.32 12 6 C10.02 6.66 8.04 7.32 6 8 C6.33 7.34 6.66 6.68 7 6 C7.66 6 8.32 6 9 6 C9 5.34 9 4.68 9 4 C6.03 3.01 3.06 2.02 0 1 C0 0.67 0 0.34 0 0 Z " fill="#A8B3B9" transform="translate(174,29)"/>
<path d="M0 0 C0.99 0 1.98 0 3 0 C3.33 2.97 3.66 5.94 4 9 C3.01 9 2.02 9 1 9 C0.67 6.03 0.34 3.06 0 0 Z " fill="#1C213B" transform="translate(108,64)"/>
<path d="M0 0 C2.475 0.495 2.475 0.495 5 1 C5.33 3.31 5.66 5.62 6 8 C1.125 3.375 1.125 3.375 0 0 Z " fill="#525567" transform="translate(36,191)"/>
<path d="M0 0 C0.66 0 1.32 0 2 0 C1.67 1.65 1.34 3.3 1 5 C-1.31 5.33 -3.62 5.66 -6 6 C-6 5.34 -6 4.68 -6 4 C-4.35 4 -2.7 4 -1 4 C-0.67 2.68 -0.34 1.36 0 0 Z " fill="#869276" transform="translate(183,67)"/>
<path d="M0 0 C2.7824349 1.39121745 3.55210065 3.30164212 5 6 C5 6.66 5 7.32 5 8 C3.68 7.67 2.36 7.34 1 7 C0.67 4.69 0.34 2.38 0 0 Z " fill="#303649" transform="translate(41,193)"/>
<path d="M0 0 C2.56616632 3.84924948 2.55097676 6.4349304 3 11 C2.67 10.34 2.34 9.68 2 9 C1.34 9 0.68 9 0 9 C0 6.03 0 3.06 0 0 Z " fill="#374456" transform="translate(163,120)"/>
<path d="M0 0 C0.99 0.33 1.98 0.66 3 1 C2 4 2 4 0 5 C-1.13350534 7.01669827 -1.13350534 7.01669827 -2 9 C-2.33 8.34 -2.66 7.68 -3 7 C-2.06421005 4.64018187 -1.06652192 2.30368736 0 0 Z " fill="#253144" transform="translate(122,84)"/>
<path d="M0 0 C1.98 0 3.96 0 6 0 C6 0.99 6 1.98 6 3 C4.02 3 2.04 3 0 3 C0 2.01 0 1.02 0 0 Z " fill="#A6BBC1" transform="translate(60,193)"/>
<path d="M0 0 C2.475 0.495 2.475 0.495 5 1 C5 3.31 5 5.62 5 8 C4.01 7.34 3.02 6.68 2 6 C2 4.68 2 3.36 2 2 C1.34 2 0.68 2 0 2 C0 1.34 0 0.68 0 0 Z " fill="#2C334C" transform="translate(154,192)"/>
<path d="M0 0 C2.31 0 4.62 0 7 0 C6.01 0.33 5.02 0.66 4 1 C4 1.99 4 2.98 4 4 C2.68 3.67 1.36 3.34 0 3 C0 2.01 0 1.02 0 0 Z " fill="#313149" transform="translate(29,180)"/>
<path d="M0 0 C2.475 0.495 2.475 0.495 5 1 C5.33 2.32 5.66 3.64 6 5 C6.66 5 7.32 5 8 5 C8 5.66 8 6.32 8 7 C3.8575633 5.61918777 2.67796901 3.40174442 0 0 Z " fill="#7D8A78" transform="translate(159,34)"/>
</svg>
